<svg viewBox="0 0 400 400" xmlns="http://www.w3.org/2000/svg">
  <defs>
    <!-- Enhanced gradient with more colors -->
    <linearGradient id="sustainGradient" x1="0%" y1="0%" x2="100%" y2="100%">
      <stop offset="0%" stop-color="#38b2ac" stop-opacity="1"/>
      <stop offset="33%" stop-color="#4299e1" stop-opacity="1"/>
      <stop offset="66%" stop-color="#3182ce" stop-opacity="1"/>
      <stop offset="100%" stop-color="#2b6cb0" stop-opacity="1"/>
      <animate attributeName="x1" values="0%;100%;0%" dur="10s" repeatCount="indefinite"/>
      <animate attributeName="y1" values="0%;100%;0%" dur="12s" repeatCount="indefinite"/>
    </linearGradient>
    
    <!-- Improved shadow effect -->
    <filter id="shadow" x="-20%" y="-20%" width="140%" height="140%">
      <feGaussianBlur stdDeviation="3" result="blur"/>
      <feOffset in="blur" dx="2" dy="2" result="offsetBlur"/>
      <feComposite in="SourceGraphic" in2="offsetBlur" operator="over"/>
    </filter>
    
    <!-- Glow effect filter -->
    <filter id="glow" x="-30%" y="-30%" width="160%" height="160%">
      <feGaussianBlur stdDeviation="6" result="glow"/>
      <feComposite in="SourceGraphic" in2="glow" operator="over"/>
    </filter>
    
    <!-- Pattern for background -->
    <pattern id="sustainPattern" x="0" y="0" width="40" height="40" patternUnits="userSpaceOnUse">
      <circle cx="20" cy="20" r="1" fill="#2c5282" opacity="0.2"/>
    </pattern>
  </defs>
  
  <!-- Background Circle with pattern and animation -->
  <circle cx="200" cy="200" r="150" fill="#f0f9ff" stroke="url(#sustainGradient)" stroke-width="10">
    <animate attributeName="r" values="150;155;150" dur="8s" repeatCount="indefinite"/>
  </circle>
  <circle cx="200" cy="200" r="145" fill="url(#sustainPattern)" fill-opacity="0.3" stroke="none"/>
  
  <!-- Main Gear (Mechanical Engineering) - Improved -->
  <g transform="translate(200, 200)">
    <g id="gear">
      <path d="M0,-80 L10,-78 L15,-60 L35,-70 L45,-55 L30,-40 L45,-25 L35,-10 L15,-20 L10,-2 L0,0 L-10,-2 L-15,-20 L-35,-10 L-45,-25 L-30,-40 L-45,-55 L-35,-70 L-15,-60 L-10,-78 Z" 
            fill="url(#sustainGradient)" stroke="#2c5282" stroke-width="2" filter="url(#shadow)">
        <animate attributeName="opacity" values="0.9;1;0.9" dur="5s" repeatCount="indefinite"/>
      </path>
      <circle cx="0" cy="0" r="25" fill="#f0f9ff" stroke="#2c5282" stroke-width="2"/>
    </g>
    <animateTransform attributeName="transform" type="rotate" from="0" to="360" dur="30s" repeatCount="indefinite" additive="sum"/>
  </g>
  
  <!-- Secondary smaller gears -->
  <g transform="translate(240, 260)">
    <path d="M0,-30 L5,-29 L7,-22 L15,-25 L20,-18 L12,-12 L20,-6 L15,-2 L7,-8 L5,-1 L0,0 L-5,-1 L-7,-8 L-15,-2 L-20,-6 L-12,-12 L-20,-18 L-15,-25 L-7,-22 L-5,-29 Z" 
          fill="#3182ce" stroke="#2c5282" stroke-width="1.5" opacity="0.8">
    </path>
    <circle cx="0" cy="0" r="10" fill="#f0f9ff" stroke="#2c5282" stroke-width="1"/>
    <animateTransform attributeName="transform" type="rotate" from="0 240 260" to="-360 240 260" dur="20s" repeatCount="indefinite"/>
  </g>
  
  <g transform="translate(150, 260)">
    <path d="M0,-25 L4,-24 L6,-18 L12,-21 L16,-15 L10,-10 L16,-5 L12,-1 L6,-6 L4,-1 L0,0 L-4,-1 L-6,-6 L-12,-1 L-16,-5 L-10,-10 L-16,-15 L-12,-21 L-6,-18 L-4,-24 Z" 
          fill="#38b2ac" stroke="#2c5282" stroke-width="1.5" opacity="0.8">
    </path>
    <circle cx="0" cy="0" r="8" fill="#f0f9ff" stroke="#2c5282" stroke-width="1"/>
    <animateTransform attributeName="transform" type="rotate" from="0 150 260" to="360 150 260" dur="15s" repeatCount="indefinite"/>
  </g>
  
  <!-- Enhanced Heat Pump Representation -->
  <g transform="translate(200, 200)">
    <g id="heatpump">
      <!-- Heat Flow Lines (Energy Transfer) with glow effect -->
      <path d="M-60,0 C-40,15 -20,-15 0,0 C20,15 40,-15 60,0" 
            stroke="url(#sustainGradient)" stroke-width="10" fill="none" stroke-linecap="round" filter="url(#glow)">
        <animate attributeName="d" 
                 values="M-60,0 C-40,15 -20,-15 0,0 C20,15 40,-15 60,0;
                         M-60,0 C-40,-15 -20,15 0,0 C20,-15 40,15 60,0;
                         M-60,0 C-40,15 -20,-15 0,0 C20,15 40,-15 60,0" 
                 dur="3s" repeatCount="indefinite"/>
      </path>
    </g>
  </g>
  
  <!-- Improved HVAC Symbol -->
  <g transform="translate(200, 200) scale(0.5)">
    <path d="M0,-40 L60,35 L-60,35 Z" fill="#38b2ac" stroke="#2c5282" stroke-width="3" opacity="0.8" filter="url(#shadow)">
      <animate attributeName="opacity" values="0.8;1;0.8" dur="3s" repeatCount="indefinite"/>
      <animateTransform attributeName="transform" type="rotate" from="0" to="120" dur="20s" repeatCount="indefinite" additive="sum"/>
    </path>
  </g>
  
  <!-- Enhanced Renewable Energy Symbol (Solar) -->
  <g transform="translate(200, 170)">
    <g>
      <path d="M0,0 L25,-13 A25,25 0 0,1 25,13 Z" fill="#f6ad55" stroke="#ed8936" stroke-width="1" filter="url(#glow)">
        <animate attributeName="fill" values="#f6ad55;#f6e05e;#f6ad55" dur="4s" repeatCount="indefinite"/>
      </path>
      <circle cx="0" cy="0" r="5" fill="#ed8936">
        <animate attributeName="r" values="5;6;5" dur="2s" repeatCount="indefinite"/>
      </circle>
      <animateTransform attributeName="transform" type="rotate" from="0" to="360" dur="15s" repeatCount="indefinite" additive="sum"/>
    </g>
  </g>
  
  <!-- Wind turbine element -->
  <g transform="translate(170, 240)">
    <line x1="0" y1="0" x2="0" y2="15" stroke="#2c5282" stroke-width="2"/>
    <g>
      <path d="M0,0 L-20,-5 L-18,-2 Z" fill="#4299e1" stroke="#2c5282" stroke-width="1"/>
      <path d="M0,0 L5,-20 L2,-18 Z" fill="#4299e1" stroke="#2c5282" stroke-width="1"/>
      <path d="M0,0 L15,15 L13,13 Z" fill="#4299e1" stroke="#2c5282" stroke-width="1"/>
      <animateTransform attributeName="transform" type="rotate" from="0" to="360" dur="4s" repeatCount="indefinite"/>
    </g>
  </g>
  
  <!-- Text Circle with improved styling -->
  <g>
    <text>
      <textPath href="#textCircle" font-family="Arial, sans-serif" font-size="16" font-weight="bold" fill="#2c5282" letter-spacing="1">
        SAROJ THAPA • PROCESS ENGINEER • SUSTAINABILITY OFFICER • HVAC EXPERT •
      </textPath>
    </text>
    
    <path id="textCircle" d="M200,80 A120,120 0 1,1 199.99,80" fill="none"/>
    
    <animateTransform attributeName="transform" 
                      type="rotate" 
                      from="0 200 200" 
                      to="360 200 200" 
                      dur="40s" 
                      repeatCount="indefinite"/>
  </g>
  
  
  <g>
    <circle cx="180" cy="150" r="2" fill="#38b2ac">
      <animate attributeName="cy" values="150;145;150" dur="3s" repeatCount="indefinite"/>
      <animate attributeName="opacity" values="0.7;1;0.7" dur="2s" repeatCount="indefinite"/>
    </circle>
    <circle cx="220" cy="160" r="1.5" fill="#3182ce">
      <animate attributeName="cy" values="160;155;160" dur="4s" repeatCount="indefinite"/>
      <animate attributeName="opacity" values="0.6;0.9;0.6" dur="3s" repeatCount="indefinite"/>
    </circle>
    <circle cx="190" cy="240" r="2" fill="#38b2ac">
      <animate attributeName="cy" values="240;245;240" dur="3.5s" repeatCount="indefinite"/>
      <animate attributeName="opacity" values="0.7;1;0.7" dur="2.5s" repeatCount="indefinite"/>
    </circle>
  </g>
</svg>